<svg xmlns="http://www.w3.org/2000/svg" viewBox="0 0 1400 920" width="1400" height="920" font-family="Helvetica, Arial, sans-serif">
<rect width="1400" height="920" fill="#ffffff"/>
<text x="700.0" y="34" font-size="21" font-weight="700" fill="#0f172a" text-anchor="middle">Elios 25: misura della pompa del collettore (EM Mini) e controllo della pompa di integrazione (Shelly 1PM)</text>
<text x="700.0" y="56" font-size="12.5" font-weight="400" fill="#475569" text-anchor="middle">Numeri dei morsetti dal manuale Elios 25: OUT1 = pin 6 e 7, OUT2 = pin 8 e 9. I contatti OUT sono puliti: il pin 6 (o 8) riceve la fase, il pin 7 (o 9) la porta alla pompa.</text>
<rect x="40" y="100" width="190" height="80" rx="12" fill="#f8fafc" stroke="#94a3b8" stroke-width="2.5"/>
<text x="135.0" y="124" font-size="15" font-weight="700" fill="#0f172a" text-anchor="middle">Quadro</text>
<text x="135.0" y="142" font-size="11.5" font-weight="400" fill="#475569" text-anchor="middle">fase protetta 10 A</text>
<circle cx="230" cy="150" r="5" fill="#fff" stroke="#92400e" stroke-width="2.5"/>
<text x="218" y="154" font-size="12" font-weight="700" fill="#0f172a" text-anchor="end">L</text>
<rect x="330" y="100" width="330" height="520" rx="12" fill="#f8fafc" stroke="#94a3b8" stroke-width="2.5"/>
<text x="495.0" y="124" font-size="15" font-weight="700" fill="#0f172a" text-anchor="middle">Elios 25 (schema 02)</text>
<text x="495.0" y="142" font-size="11.5" font-weight="400" fill="#475569" text-anchor="middle">uscite OUT = contatti puliti 2(1) A, 230 V~</text>
<circle cx="330" cy="160" r="5" fill="#fff" stroke="#92400e" stroke-width="2.5"/>
<text x="342" y="164" font-size="12" font-weight="700" fill="#0f172a" text-anchor="start">L alimentazione</text>
<circle cx="330" cy="200" r="5" fill="#fff" stroke="#2563eb" stroke-width="2.5"/>
<text x="342" y="204" font-size="12" font-weight="700" fill="#0f172a" text-anchor="start">N alimentazione</text>
<text x="645" y="245" font-size="12" font-weight="700" fill="#475569" text-anchor="end">OUT1 · pompa del collettore</text>
<circle cx="660" cy="275" r="5" fill="#fff" stroke="#92400e" stroke-width="2.5"/>
<text x="648" y="279" font-size="12" font-weight="700" fill="#0f172a" text-anchor="end">pin 6</text>
<circle cx="660" cy="315" r="5" fill="#fff" stroke="#92400e" stroke-width="2.5"/>
<text x="648" y="319" font-size="12" font-weight="700" fill="#0f172a" text-anchor="end">pin 7</text>
<text x="645" y="375" font-size="12" font-weight="700" fill="#475569" text-anchor="end">OUT2 · pompa di integrazione</text>
<circle cx="660" cy="405" r="5" fill="#fff" stroke="#92400e" stroke-width="2.5"/>
<text x="648" y="409" font-size="12" font-weight="700" fill="#0f172a" text-anchor="end">pin 8</text>
<circle cx="660" cy="445" r="5" fill="#fff" stroke="#92400e" stroke-width="2.5"/>
<text x="648" y="449" font-size="12" font-weight="700" fill="#0f172a" text-anchor="end">pin 9</text>
<circle cx="495" cy="620" r="5" fill="#fff" stroke="#16a34a" stroke-width="2.5"/>
<rect x="800" y="110" width="200" height="150" rx="12" fill="#fff7ed" stroke="#fb923c" stroke-width="2.5"/>
<text x="900.0" y="134" font-size="15" font-weight="700" fill="#0f172a" text-anchor="middle">Shelly EM Mini Gen4</text>
<text x="900.0" y="152" font-size="11.5" font-weight="400" fill="#475569" text-anchor="middle">contatore in linea, senza relè</text>
<circle cx="800" cy="150" r="5" fill="#fff" stroke="#92400e" stroke-width="2.5"/>
<text x="812" y="154" font-size="12" font-weight="700" fill="#0f172a" text-anchor="start">L</text>
<circle cx="800" cy="215" r="5" fill="#fff" stroke="#92400e" stroke-width="2.5"/>
<text x="812" y="219" font-size="12" font-weight="700" fill="#0f172a" text-anchor="start">O (uscita)</text>
<circle cx="900" cy="260" r="5" fill="#fff" stroke="#2563eb" stroke-width="2.5"/>
<text x="912" y="264" font-size="12" font-weight="700" fill="#0f172a" text-anchor="start">N</text>
<rect x="1150" y="110" width="200" height="140" rx="12" fill="#dcfce7" stroke="#16a34a" stroke-width="2.5"/>
<text x="1250.0" y="134" font-size="15" font-weight="700" fill="#0f172a" text-anchor="middle">Pompa collettore</text>
<text x="1250.0" y="152" font-size="11.5" font-weight="400" fill="#475569" text-anchor="middle">circa 20 W</text>
<circle cx="1150" cy="180" r="5" fill="#fff" stroke="#92400e" stroke-width="2.5"/>
<text x="1162" y="184" font-size="12" font-weight="700" fill="#0f172a" text-anchor="start">L</text>
<circle cx="1150" cy="220" r="5" fill="#fff" stroke="#2563eb" stroke-width="2.5"/>
<text x="1162" y="224" font-size="12" font-weight="700" fill="#0f172a" text-anchor="start">N</text>
<rect x="800" y="370" width="200" height="240" rx="12" fill="#eff6ff" stroke="#3b82f6" stroke-width="2.5"/>
<text x="900.0" y="394" font-size="15" font-weight="700" fill="#0f172a" text-anchor="middle">Shelly 1PM</text>
<text x="900.0" y="412" font-size="11.5" font-weight="400" fill="#475569" text-anchor="middle">relè 16 A + misura di potenza</text>
<circle cx="800" cy="480" r="5" fill="#fff" stroke="#92400e" stroke-width="2.5"/>
<text x="812" y="484" font-size="12" font-weight="700" fill="#0f172a" text-anchor="start">L</text>
<circle cx="800" cy="520" r="5" fill="#fff" stroke="#92400e" stroke-width="2.5"/>
<text x="812" y="524" font-size="12" font-weight="700" fill="#0f172a" text-anchor="start">SW (ingresso)</text>
<circle cx="800" cy="570" r="5" fill="#fff" stroke="#2563eb" stroke-width="2.5"/>
<text x="812" y="574" font-size="12" font-weight="700" fill="#0f172a" text-anchor="start">N</text>
<circle cx="1000" cy="480" r="5" fill="#fff" stroke="#92400e" stroke-width="2.5"/>
<text x="988" y="484" font-size="12" font-weight="700" fill="#0f172a" text-anchor="end">O (uscita)</text>
<rect x="1150" y="370" width="200" height="240" rx="12" fill="#fef3c7" stroke="#d97706" stroke-width="2.5"/>
<text x="1250.0" y="394" font-size="15" font-weight="700" fill="#0f172a" text-anchor="middle">Pompa integrazione</text>
<text x="1250.0" y="412" font-size="11.5" font-weight="400" fill="#475569" text-anchor="middle">230 V~, circa 40 W</text>
<circle cx="1150" cy="480" r="5" fill="#fff" stroke="#92400e" stroke-width="2.5"/>
<text x="1162" y="484" font-size="12" font-weight="700" fill="#0f172a" text-anchor="start">L</text>
<circle cx="1150" cy="535" r="5" fill="#fff" stroke="#2563eb" stroke-width="2.5"/>
<text x="1162" y="539" font-size="12" font-weight="700" fill="#0f172a" text-anchor="start">N</text>
<circle cx="1150" cy="580" r="5" fill="#fff" stroke="#16a34a" stroke-width="2.5"/>
<text x="1162" y="584" font-size="12" font-weight="700" fill="#0f172a" text-anchor="start">PE</text>
<polyline points="235,150 280,150 280,76 700,76" fill="none" stroke="#92400e" stroke-width="3" stroke-linejoin="round"/>
<polyline points="280,150 280,160 330,160" fill="none" stroke="#92400e" stroke-width="3" stroke-linejoin="round"/>
<polyline points="700,76 700,480" fill="none" stroke="#92400e" stroke-width="3" stroke-linejoin="round"/>
<polyline points="700,405 665,405" fill="none" stroke="#92400e" stroke-width="3" stroke-linejoin="round"/>
<polyline points="700,480 800,480" fill="none" stroke="#92400e" stroke-width="3" stroke-linejoin="round"/>
<polyline points="760,76 760,150 800,150" fill="none" stroke="#92400e" stroke-width="3" stroke-linejoin="round"/>
<path d="M805 215 H760 V275 H707 a7 7 0 0 0 -14 0 H665" fill="none" stroke="#92400e" stroke-width="4" stroke-linejoin="round" stroke-dasharray="9 5"/>
<path d="M665 315 H693 a7 7 0 0 1 14 0 H1100 V180 H1150" fill="none" stroke="#92400e" stroke-width="3" stroke-linejoin="round"/>
<path d="M665 445 H693 a7 7 0 0 1 14 0 H740 V520 H800" fill="none" stroke="#92400e" stroke-width="4" stroke-linejoin="round" stroke-dasharray="9 5"/>
<polyline points="1005,480 1150,480" fill="none" stroke="#92400e" stroke-width="4" stroke-linejoin="round"/>
<polyline points="330,200 292,200" fill="none" stroke="#2563eb" stroke-width="3" stroke-linejoin="round"/>
<rect x="281" y="191" width="11" height="18" rx="3" fill="#2563eb"/>
<text x="276" y="204" font-size="11" font-weight="700" fill="#2563eb" text-anchor="end">N comune</text>
<polyline points="900,260 900,290" fill="none" stroke="#2563eb" stroke-width="3" stroke-linejoin="round"/>
<rect x="891" y="290" width="18" height="11" rx="3" fill="#2563eb"/>
<text x="924" y="300" font-size="11" font-weight="700" fill="#2563eb" text-anchor="start">N comune</text>
<polyline points="1150,220 1112,220" fill="none" stroke="#2563eb" stroke-width="3" stroke-linejoin="round"/>
<rect x="1101" y="211" width="11" height="18" rx="3" fill="#2563eb"/>
<text x="1096" y="224" font-size="11" font-weight="700" fill="#2563eb" text-anchor="end">N comune</text>
<polyline points="800,570 762,570" fill="none" stroke="#2563eb" stroke-width="3" stroke-linejoin="round"/>
<rect x="751" y="561" width="11" height="18" rx="3" fill="#2563eb"/>
<text x="746" y="574" font-size="11" font-weight="700" fill="#2563eb" text-anchor="end">N comune</text>
<polyline points="1150,535 1112,535" fill="none" stroke="#2563eb" stroke-width="3" stroke-linejoin="round"/>
<rect x="1101" y="526" width="11" height="18" rx="3" fill="#2563eb"/>
<text x="1096" y="539" font-size="11" font-weight="700" fill="#2563eb" text-anchor="end">N comune</text>
<polyline points="1150,580 1112,580" fill="none" stroke="#16a34a" stroke-width="4" stroke-linejoin="round"/>
<polyline points="1150,580 1112,580" fill="none" stroke="#facc15" stroke-width="4" stroke-linejoin="round" stroke-dasharray="6 6"/>
<line x1="1112" y1="571" x2="1112" y2="589" stroke="#16a34a" stroke-width="2.5"/>
<line x1="1107" y1="574" x2="1107" y2="586" stroke="#16a34a" stroke-width="2.5"/>
<line x1="1102" y1="577" x2="1102" y2="583" stroke="#16a34a" stroke-width="2.5"/>
<text x="1090" y="584" font-size="11" font-weight="700" fill="#16a34a" text-anchor="end">terra comune</text>
<polyline points="495,620 495,640" fill="none" stroke="#16a34a" stroke-width="4" stroke-linejoin="round"/>
<polyline points="495,620 495,640" fill="none" stroke="#facc15" stroke-width="4" stroke-linejoin="round" stroke-dasharray="6 6"/>
<line x1="477" y1="640" x2="513" y2="640" stroke="#16a34a" stroke-width="2.5"/>
<line x1="483" y1="645" x2="507" y2="645" stroke="#16a34a" stroke-width="2.5"/>
<line x1="489" y1="650" x2="501" y2="650" stroke="#16a34a" stroke-width="2.5"/>
<text x="521" y="654" font-size="11" font-weight="700" fill="#16a34a" text-anchor="start">terra comune</text>
<circle cx="735" cy="252" r="13" fill="#dc2626"/>
<text x="735" y="257" font-size="14" font-weight="700" fill="#fff" text-anchor="middle">1</text>
<circle cx="718" cy="500" r="13" fill="#dc2626"/>
<text x="718" y="505" font-size="14" font-weight="700" fill="#fff" text-anchor="middle">2</text>
<circle cx="772" cy="460" r="13" fill="#dc2626"/>
<text x="772" y="465" font-size="14" font-weight="700" fill="#fff" text-anchor="middle">3</text>
<circle cx="1075" cy="467" r="13" fill="#dc2626"/>
<text x="1075" y="472" font-size="14" font-weight="700" fill="#fff" text-anchor="middle">4</text>
<rect x="30" y="698" width="1340" height="190" rx="12" fill="#f8fafc" stroke="#cbd5e1" stroke-width="1.5"/>
<polyline points="50,720 100,720" fill="none" stroke="#92400e" stroke-width="3" stroke-linejoin="round"/>
<text x="110" y="724" font-size="12" font-weight="400" fill="#0f172a" text-anchor="start">fase (L)</text>
<polyline points="210,720 260,720" fill="none" stroke="#2563eb" stroke-width="3" stroke-linejoin="round"/>
<text x="270" y="724" font-size="12" font-weight="400" fill="#0f172a" text-anchor="start">neutro (N)</text>
<polyline points="390,720 440,720" fill="none" stroke="#16a34a" stroke-width="4" stroke-linejoin="round"/>
<polyline points="390,720 440,720" fill="none" stroke="#facc15" stroke-width="4" stroke-linejoin="round" stroke-dasharray="6 6"/>
<text x="450" y="724" font-size="12" font-weight="400" fill="#0f172a" text-anchor="start">terra (PE)</text>
<polyline points="560,720 620,720" fill="none" stroke="#92400e" stroke-width="4" stroke-linejoin="round" stroke-dasharray="9 5"/>
<text x="630" y="724" font-size="12" font-weight="400" fill="#0f172a" text-anchor="start">filo che cambia destinazione</text>
<polyline points="840,720 900,720" fill="none" stroke="#92400e" stroke-width="4" stroke-linejoin="round"/>
<text x="910" y="724" font-size="12" font-weight="400" fill="#0f172a" text-anchor="start">filo nuovo</text>
<text x="50" y="748" font-size="12.5" font-weight="400" fill="#0f172a" text-anchor="start">1  Pompa COLLETTORE (OUT1): la fase che arriva al pin 6 passa prima dallo Shelly EM Mini: dal nodo L entra in L dello Shelly, esce da O e va al pin 6. Il pin 7 e la pompa restano come sono.</text>
<text x="50" y="770" font-size="12.5" font-weight="400" fill="#0f172a" text-anchor="start">2  Pompa INTEGRAZIONE (OUT2): il filo che oggi esce dal pin 9 verso la pompa va invece all'ingresso SW dello Shelly 1PM. Il pin 8 resta con la sua fase.</text>
<text x="50" y="792" font-size="12.5" font-weight="400" fill="#0f172a" text-anchor="start">3  Lo Shelly 1PM si alimenta da L e N permanenti (stessa fase del pin 8), non dal contatto OUT2.</text>
<text x="50" y="814" font-size="12.5" font-weight="400" fill="#0f172a" text-anchor="start">4  Filo nuovo dall'uscita O dello Shelly 1PM alla fase della pompa di integrazione. Neutro e terra della pompa restano come sono.</text>
<text x="50" y="838" font-size="12.5" font-weight="400" fill="#475569" text-anchor="start">L'EM Mini misura solo la pompa del collettore, ma è alimentato sempre (L e N permanenti): resta acceso anche a pompa ferma. Non è più in serie sulla fase principale: Elios, 1PM ed EM Mini prendono la fase direttamente dal quadro.</text>
<text x="50" y="860" font-size="12.5" font-weight="400" fill="#475569" text-anchor="start">Il ponticello dal morsetto L al pin 6 (esempio del manuale, pag. 11) si toglie: il pin 6 ora riceve la fase dall'EM Mini. Verifica sul tuo impianto quale dei due pin riceve la fase.</text>
<text x="50" y="886" font-size="12.5" font-weight="700" fill="#dc2626" text-anchor="start">Stessa fase per tutti i collegamenti. Togli corrente dal quadro prima di toccare qualsiasi filo. Lavori da elettricista abilitato, con puntalini sui conduttori.</text>
</svg>